<?xml version="1.0" standalone="no"?>
<!DOCTYPE svg PUBLIC "-//W3C//DTD SVG 20010904//EN"
 "http://www.w3.org/TR/2001/REC-SVG-20010904/DTD/svg10.dtd">
<svg version="1.0" xmlns="http://www.w3.org/2000/svg"
 width="256.000000pt" height="147.000000pt" viewBox="0 0 256.000000 147.000000"
 preserveAspectRatio="xMidYMid meet">
<metadata>
Created by potrace 1.13, written by Peter Selinger 2001-2015
</metadata>
<g transform="translate(0.000000,147.000000) scale(0.100000,-0.100000)"
fill="#000000" stroke="none">
<path d="M907 1397 c-3 -9 -17 -17 -30 -17 -13 0 -37 -11 -53 -25 -29 -25 -29
-25 -6 -31 12 -4 22 -10 22 -15 0 -5 5 -9 11 -9 5 0 7 5 4 10 -3 6 2 18 11 27
13 13 19 14 22 5 2 -6 10 -12 18 -12 8 0 14 -7 14 -15 0 -8 -4 -15 -10 -15 -5
0 -7 -7 -4 -15 4 -8 -1 -17 -10 -21 -17 -6 -16 -28 3 -77 15 -38 14 -39 -11
-26 -18 10 -20 9 -15 -6 4 -9 7 -24 8 -33 0 -14 2 -13 9 3 7 16 9 12 6 -15 -1
-20 -5 -41 -9 -47 -4 -6 -2 -13 5 -15 6 -2 12 -13 13 -25 1 -18 -3 -20 -29
-16 -17 3 -50 13 -74 23 l-43 19 36 -35 c20 -20 43 -33 50 -30 7 2 25 2 38 -2
25 -7 25 -7 7 -30 -18 -22 -21 -23 -62 -9 -34 12 -44 21 -49 43 l-7 29 -1 -28
c-1 -20 -7 -31 -22 -34 -16 -4 -17 -8 -7 -14 11 -7 10 -9 -1 -9 -11 0 -10 -4
4 -13 16 -13 15 -14 -13 -9 -30 4 -46 22 -20 22 6 0 9 2 6 5 -3 3 -18 1 -33
-5 -23 -9 -26 -8 -21 5 3 8 0 15 -7 16 -22 2 37 17 73 19 31 1 32 2 13 10 -15
6 -27 27 -41 70 -10 33 -21 58 -24 55 -10 -10 -30 63 -23 84 9 29 -14 107 -38
128 -11 10 -17 12 -13 6 9 -17 11 -17 -54 8 -41 16 -81 22 -157 24 l-103 3
-27 -37 c-15 -20 -29 -38 -32 -41 -15 -13 -29 -48 -22 -56 4 -5 3 -27 -4 -49
-11 -38 -12 -39 -23 -18 -16 30 -15 54 5 83 l17 25 -22 -19 c-17 -15 -49 -83
-44 -93 1 -2 -5 -18 -13 -36 -13 -30 -12 -33 3 -32 9 1 25 6 35 10 10 4 27 4
38 -1 19 -9 19 -9 -1 -41 -14 -23 -27 -33 -44 -33 -14 0 -28 -5 -32 -11 -4 -8
-9 -7 -15 2 -7 11 -9 10 -9 -4 0 -11 -5 -17 -12 -14 -7 2 -11 13 -10 23 2 10
6 39 9 63 6 54 -13 48 -23 -7 -4 -20 -11 -45 -15 -54 -10 -19 22 -48 54 -48
16 0 17 -3 7 -15 -10 -12 -6 -20 20 -44 18 -16 29 -34 26 -40 -4 -6 3 -28 14
-51 l20 -40 -58 -58 c-82 -81 -107 -149 -106 -292 0 -82 5 -119 23 -170 39
-113 133 -202 227 -216 52 -7 202 5 185 15 -7 5 -2 12 15 21 30 16 73 69 99
120 10 19 19 37 21 39 2 2 24 -15 50 -37 60 -54 144 -86 204 -78 69 9 79 11
92 24 7 7 17 12 22 12 13 1 56 35 56 45 0 3 11 21 24 38 46 61 66 137 36 137
-5 0 -14 16 -21 35 -12 33 -15 35 -60 35 -45 0 -48 2 -66 38 -11 23 -24 36
-33 33 -55 -14 -59 -14 -53 8 3 12 13 21 24 21 10 0 21 5 24 10 3 6 3 10 -1
10 -14 0 -248 -31 -271 -36 -38 -7 -26 -19 19 -19 33 0 43 -4 46 -17 2 -10 -1
-18 -7 -18 -6 0 -10 6 -8 13 1 7 -7 11 -23 9 -14 -1 -33 -3 -42 -3 -15 0 -17
-12 -16 -92 1 -114 -11 -160 -65 -239 -79 -117 -193 -148 -315 -87 -96 48
-149 129 -173 263 -34 197 49 384 192 431 88 30 208 1 254 -61 12 -17 14 -17
20 -3 4 11 13 15 26 12 16 -5 18 -8 7 -15 -8 -6 5 -8 40 -4 50 5 58 1 53 -26
0 -5 3 -8 7 -8 19 0 4 -56 -17 -66 -16 -8 -19 -13 -9 -18 7 -3 2 -4 -12 -3
-14 1 -29 7 -33 12 -5 6 -6 2 -3 -8 3 -10 6 -24 7 -30 0 -7 4 -3 9 8 7 16 9
17 9 3 1 -15 4 -15 29 -2 25 12 147 31 307 49 28 2 135 17 238 31 168 23 212
25 195 9 -9 -10 -376 -64 -397 -58 -45 12 -67 -39 -32 -71 18 -16 21 -16 58 3
25 12 44 16 53 11 16 -10 45 23 35 39 -6 11 15 18 62 23 27 2 36 -3 63 -41 18
-25 30 -51 27 -61 -3 -11 2 -21 10 -24 22 -9 9 39 -24 87 -14 20 -24 40 -21
42 6 7 191 39 342 61 99 14 120 14 127 3 6 -11 9 -10 15 5 5 14 9 15 15 4 7
-11 11 -10 19 2 8 13 10 13 10 -2 0 -11 5 -15 14 -12 8 3 12 12 10 19 -5 12
34 25 128 40 40 6 56 21 40 37 -6 6 -31 5 -72 -2 -34 -6 -64 -9 -67 -7 -4 5
39 20 91 32 22 5 26 9 17 18 -9 9 -14 8 -21 -3 -5 -8 -12 -12 -15 -8 -4 4 -25
0 -47 -8 -31 -11 -44 -11 -55 -3 -11 10 -12 8 -7 -6 5 -13 4 -16 -5 -11 -7 5
-10 2 -9 -6 2 -9 -8 -13 -29 -13 -18 0 -33 -2 -33 -6 0 -3 -6 -6 -12 -7 -7 -1
-31 -6 -53 -11 l-40 -9 40 -1 c54 -1 34 -17 -39 -30 -75 -14 -126 -14 -126 -1
0 6 12 10 27 10 14 0 24 3 20 6 -12 12 -78 -6 -71 -19 4 -7 -1 -5 -12 4 -10 9
-25 14 -32 12 -7 -3 -24 2 -38 11 -13 9 -29 14 -34 11 -11 -7 -5 53 9 85 10
23 11 22 6 -10 -5 -31 -3 -29 15 15 23 58 25 70 5 35 -17 -29 -20 -9 -4 23 8
15 8 19 1 12 -6 -6 -22 -39 -35 -75 -20 -51 -29 -65 -46 -66 -32 -2 -39 -14
-8 -14 15 0 27 -4 27 -10 0 -6 -28 -10 -65 -10 -51 0 -65 3 -65 15 0 10 11 15
33 16 l32 1 -30 7 c-27 6 -30 10 -27 41 2 25 0 32 -8 24 -15 -15 -15 -101 0
-119 14 -16 6 -35 -16 -35 -25 0 -19 113 10 170 13 27 22 51 19 53 -3 3 -2 19
2 36 l6 30 82 1 c152 2 229 -1 251 -10 17 -6 23 -5 23 5 0 17 -124 30 -202 22
-44 -4 -66 0 -125 24 -39 16 -85 39 -102 50 -24 18 -32 19 -38 8 -7 -11 -10
-10 -15 3 -4 9 -13 15 -21 14 -8 -1 -14 -4 -12 -7 3 -6 -35 -49 -45 -49 -14 0
-34 24 -30 37 3 7 10 10 18 7 21 -8 55 14 55 36 0 12 7 20 16 20 14 0 15 -2 3
-17 -8 -10 -9 -14 -2 -10 6 4 14 3 18 -3 3 -5 10 -10 16 -10 5 0 -2 18 -16 40
-14 22 -25 54 -25 72 0 46 -20 81 -50 88 -22 5 -25 11 -22 41 2 19 11 42 19
52 14 15 14 17 1 17 -8 0 -19 10 -25 22 -8 19 -10 20 -16 5z m-605 -99 c-2
-34 0 -48 6 -40 5 8 25 14 43 15 29 2 34 -2 38 -23 1 -14 8 -28 15 -32 7 -5 5
-8 -7 -8 -10 0 -20 7 -23 15 -4 9 -19 15 -36 15 -27 0 -29 -3 -26 -32 2 -17 9
-34 17 -36 8 -3 11 0 8 6 -4 5 1 16 10 23 13 11 17 11 20 1 3 -6 9 -10 14 -6
5 3 9 -9 9 -25 0 -25 -4 -31 -22 -31 -19 0 -20 -2 -8 -10 11 -7 11 -10 2 -10
-7 0 -11 -4 -8 -9 3 -5 15 -7 26 -4 11 3 17 10 13 16 -4 7 5 8 27 4 38 -8 60
-24 60 -43 0 -8 5 -14 10 -14 7 0 7 6 0 19 -10 20 -4 51 10 51 4 0 7 11 6 25
-1 29 -5 30 -31 12 -14 -11 -15 -16 -5 -22 9 -6 11 -4 5 5 -6 9 -4 11 5 5 17
-11 -13 -35 -38 -30 -9 2 -19 4 -22 4 -12 2 -5 38 7 38 7 0 9 -5 6 -11 -3 -6
-1 -6 7 1 7 6 13 23 13 37 0 14 3 26 8 26 5 0 6 6 4 13 -7 18 34 42 48 28 6
-6 19 -11 29 -11 19 0 41 -33 30 -45 -4 -5 -1 -5 6 -1 6 4 12 2 12 -5 0 -6 8
-9 20 -6 11 3 20 0 21 -6 1 -7 5 -1 9 13 6 20 8 21 9 6 1 -11 -7 -28 -16 -39
-10 -11 -13 -17 -6 -14 7 5 10 1 9 -10 -2 -9 -9 -19 -17 -21 -11 -3 -11 -1 1
7 9 7 10 11 3 11 -29 0 -22 -25 20 -63 35 -33 45 -49 45 -75 1 -27 -3 -32 -15
-28 -9 4 -21 -1 -29 -11 -12 -16 -13 -16 -14 -1 0 9 -3 24 -7 34 -5 14 -2 16
20 12 29 -6 39 15 12 26 -8 3 -15 12 -15 20 0 8 -5 18 -12 22 -7 5 -8 3 -3 -5
4 -7 2 -24 -6 -37 -11 -21 -17 -23 -48 -18 -20 4 -43 13 -52 20 -8 8 -23 14
-32 14 -10 0 -17 8 -17 19 0 11 -4 22 -8 25 -5 3 -8 -10 -8 -28 1 -29 4 -32
26 -28 l25 3 -25 -14 c-30 -16 -50 -11 -50 12 0 21 -29 63 -30 43 0 -7 5 -22
10 -33 13 -24 9 -24 -34 2 -31 18 -36 19 -36 5 0 -9 6 -16 14 -16 8 0 18 -5
22 -12 5 -8 2 -9 -9 -5 -11 4 -17 1 -17 -8 0 -11 7 -11 36 -3 20 5 38 7 42 4
9 -10 -30 -46 -49 -46 -12 0 -16 -5 -13 -15 8 -20 84 -21 84 -1 0 8 -5 18 -11
22 -8 4 -7 9 2 15 8 5 16 9 19 9 9 0 6 -47 -2 -56 -5 -4 -8 -13 -8 -20 0 -9 6
-10 25 -1 14 7 25 20 25 30 0 10 5 15 10 12 13 -8 13 1 0 25 -8 16 -8 18 5 14
8 -4 15 -11 15 -16 0 -5 18 -8 40 -7 22 2 40 -1 40 -6 0 -6 -14 -11 -31 -12
-17 -2 -40 -10 -52 -18 -21 -15 -17 -15 48 -13 l70 3 3 -48 c4 -55 -14 -91
-31 -62 -6 11 -5 21 2 28 15 15 14 28 -1 25 -7 -2 -12 5 -10 15 2 10 -3 17
-13 17 -8 0 -15 -2 -15 -3 0 -11 40 -118 53 -144 12 -23 13 -33 4 -42 -18 -18
4 -13 27 6 20 17 20 16 0 -6 -17 -19 -25 -21 -41 -12 -14 7 -24 7 -33 -2 -10
-9 -11 -9 -6 1 4 7 -6 39 -24 74 -23 43 -29 63 -21 71 6 6 11 15 11 20 0 4
-10 -3 -22 -15 -26 -28 -68 -28 -46 -1 11 14 10 16 -14 9 -24 -5 -28 -3 -29
16 -1 17 -2 19 -6 6 -5 -21 -23 -24 -23 -4 0 7 -7 19 -15 26 -12 10 -15 9 -16
-6 -2 -34 -48 126 -74 258 -14 71 -22 140 -19 153 11 42 19 27 16 -27z m-22
-133 c4 -5 22 -64 40 -130 17 -66 41 -139 53 -163 18 -37 19 -45 7 -52 -8 -6
-19 -10 -25 -10 -5 0 -5 4 2 8 16 10 -6 69 -49 129 -19 26 -38 57 -42 68 -5
11 -10 15 -13 9 -2 -6 14 -39 37 -72 22 -34 40 -67 40 -75 0 -7 6 -19 13 -26
10 -11 8 -11 -10 -2 -13 6 -23 16 -23 21 0 5 -10 12 -22 16 -21 6 -22 7 -4 14
20 7 10 17 -83 89 l-25 18 27 32 c18 22 27 44 27 69 0 20 5 54 9 76 7 26 6 35
-1 28 -6 -6 -13 -31 -15 -56 -3 -25 -9 -46 -13 -46 -4 0 -4 19 1 43 4 23 8 45
9 50 0 4 10 17 23 30 l22 22 3 -40 c2 -22 7 -44 12 -50z m753 -204 c9 -9 9
-14 1 -19 -7 -4 -13 -26 -16 -49 -3 -42 -3 -43 27 -44 30 -2 29 -2 -5 -8 -32
-5 -36 -10 -42 -46 -6 -40 -6 -40 -5 8 1 28 -2 47 -9 47 -6 0 -10 -17 -9 -42
3 -62 4 -70 13 -65 4 3 8 -20 9 -50 2 -33 -1 -52 -7 -48 -6 4 -8 11 -5 16 4 5
0 9 -8 9 -25 0 -38 180 -17 221 9 15 7 19 -7 19 -10 0 -26 6 -35 14 -16 12
-16 14 -1 35 13 20 22 23 60 18 25 -2 50 -10 56 -16z m-272 -153 c2 -21 2 -21
7 2 4 22 5 23 11 6 7 -17 8 -17 24 -2 9 10 17 14 17 9 0 -5 19 -8 43 -8 45 0
57 -8 57 -40 0 -13 -11 -25 -29 -33 -19 -8 -28 -18 -25 -27 3 -8 1 -22 -4 -32
-9 -16 -12 -15 -23 10 l-12 27 -19 -22 c-23 -27 -23 -29 6 -24 19 3 24 0 23
-15 -1 -17 -10 -23 -29 -20 -5 0 -8 -3 -8 -9 0 -5 -4 -10 -10 -10 -6 0 -9 5
-7 11 1 6 -6 13 -16 14 -11 2 -22 7 -25 10 -4 4 1 5 12 3 12 -2 21 5 27 20 5
13 5 22 -1 22 -6 0 -10 -6 -11 -12 0 -10 -2 -10 -6 0 -3 8 -16 -2 -33 -27 -16
-21 -34 -42 -41 -47 -7 -4 1 10 18 32 17 21 33 48 37 59 6 20 6 20 -9 1 -12
-16 -15 -17 -15 -4 0 9 -5 18 -11 20 -5 2 -12 16 -13 30 -2 16 1 25 6 21 6 -3
7 3 3 17 -5 15 -4 20 4 16 6 -4 11 0 11 8 0 26 40 20 41 -6z m122 -335 c7 3
19 8 29 12 12 5 18 -1 23 -25 7 -30 8 -31 53 -28 42 3 48 0 58 -22 10 -23 1
-80 -13 -80 -3 0 -35 15 -72 34 -36 19 -74 36 -83 40 -14 4 -18 16 -17 53 1
26 3 40 6 30 3 -10 10 -16 16 -14z m-163 -61 c0 -5 -10 -14 -23 -21 -13 -7
-28 -21 -35 -32 -10 -16 -2 -13 44 12 50 29 55 30 45 11 -6 -11 -15 -24 -21
-27 -18 -11 -50 -64 -42 -69 5 -3 25 18 46 45 21 28 39 49 41 47 2 -2 -3 -28
-11 -58 -8 -30 -10 -58 -5 -63 4 -4 14 19 21 53 21 99 28 91 46 -60 3 -30 11
-61 16 -67 16 -19 -67 -17 -86 2 -8 8 -22 15 -31 15 -9 0 -27 11 -40 25 -14
13 -25 21 -25 17 0 -4 -9 10 -20 31 -13 23 -20 56 -20 89 l0 53 50 3 c28 2 50
-1 50 -6z m237 -64 c62 -34 71 -42 63 -57 -6 -13 -5 -18 5 -18 17 0 28 24 18
39 -4 7 -1 8 7 3 10 -6 12 -4 7 9 -4 10 -3 15 3 11 6 -3 10 1 10 9 0 9 5 16
11 16 19 0 -54 -121 -94 -155 -109 -94 -272 -82 -358 26 -42 53 -28 63 16 12
19 -23 54 -51 78 -62 51 -25 137 -27 182 -6 25 12 25 14 5 8 -54 -13 -54 -13
-67 77 -20 131 -16 136 41 55 27 -38 54 -82 59 -97 10 -25 12 -25 34 -11 12 8
20 20 16 26 -4 6 -1 7 7 2 9 -6 11 -4 5 5 -6 9 -4 11 5 5 9 -6 11 -4 6 4 -6 9
-12 8 -26 -4 -16 -14 -21 -11 -72 57 -30 40 -58 79 -62 85 -10 17 13 8 101
-39z"/>
<path d="M2282 1203 c-5 -10 -7 -24 -4 -32 3 -10 0 -12 -12 -8 -20 8 -57 -68
-77 -160 l-13 -61 -55 -4 c-31 -3 -117 -5 -191 -7 -114 -2 -133 0 -120 12 8 7
28 19 43 25 25 11 29 10 38 -11 9 -20 9 -20 4 5 -3 15 -1 30 5 33 5 3 10 -2
11 -12 0 -14 2 -15 6 -3 3 8 19 34 35 57 18 26 23 40 14 37 -8 -3 -18 -14 -21
-25 -9 -28 -43 -43 -61 -28 -11 9 -14 8 -14 -10 0 -14 -12 -27 -40 -41 -35
-18 -40 -18 -40 -4 0 14 -1 14 -16 0 -8 -9 -18 -17 -22 -17 -12 -3 -96 -7
-156 -8 -81 -1 -67 -9 22 -13 40 -1 72 -5 72 -8 0 -4 108 -5 239 -4 l239 2
-13 -38 c-22 -63 -55 -120 -69 -120 -13 0 -83 71 -119 120 -18 25 -18 25 -1
-5 35 -62 86 -116 115 -122 31 -6 38 -20 16 -29 -8 -3 -29 9 -48 25 -19 17
-37 29 -40 28 -4 -1 -17 7 -29 18 l-23 20 18 -27 c16 -26 14 -33 -10 -28 -5 1
-1 -8 9 -19 10 -11 22 -18 26 -16 4 3 11 -2 14 -11 3 -8 10 -12 16 -9 5 3 10
1 10 -5 0 -6 5 -8 11 -5 6 4 -5 17 -26 32 -20 14 -34 27 -32 29 3 3 22 -6 42
-21 21 -14 44 -25 51 -25 8 0 14 -4 14 -10 0 -5 -9 -10 -20 -10 -13 0 -18 -5
-14 -15 11 -27 43 18 54 73 11 59 45 132 61 132 8 0 8 4 1 13 -6 7 -8 18 -4
24 7 11 181 48 189 40 2 -3 -26 -15 -64 -27 -69 -23 -100 -40 -72 -40 7 0 49
12 91 27 64 22 76 29 66 40 -9 12 -7 13 15 8 15 -4 34 -5 42 -1 13 5 13 9 3
26 -7 11 -18 20 -25 20 -7 0 -13 3 -13 8 0 4 -11 21 -25 37 l-25 30 11 -30 c5
-16 15 -35 20 -41 7 -9 5 -15 -8 -22 -30 -16 -88 -32 -142 -41 -48 -7 -51 -7
-51 13 0 38 15 50 47 38 44 -16 109 -24 95 -10 -6 6 -23 10 -39 10 -37 0 -73
23 -73 49 0 31 28 89 43 89 7 0 26 -13 41 -29 l28 -29 39 21 c21 11 39 26 39
32 0 18 -31 56 -54 64 -56 22 -65 22 -74 4z"/>
<path d="M250 761 c-115 -37 -179 -130 -195 -283 -20 -184 69 -352 206 -392
66 -20 90 -20 137 0 42 17 106 75 93 83 -12 8 -113 172 -109 177 8 7 148 -92
149 -106 0 -8 5 -2 11 13 5 16 8 29 7 30 -2 2 -37 24 -77 51 -41 26 -76 45
-78 43 -3 -2 29 -26 71 -53 41 -27 75 -53 75 -57 0 -5 -13 -1 -29 10 -126 82
-151 99 -151 106 0 5 4 6 8 3 5 -3 22 -1 38 4 l29 8 -32 1 c-18 1 -33 6 -33
12 0 7 14 9 43 5 23 -3 66 -8 95 -12 71 -9 67 -27 -5 -20 l-58 5 60 -12 60
-12 3 32 c2 17 -1 45 -5 61 -8 29 -9 30 -33 16 -14 -9 -17 -13 -7 -10 10 3 17
0 17 -7 0 -8 -13 -13 -32 -12 -47 0 -42 25 10 44 23 8 42 19 42 23 0 5 -15 2
-32 -5 -18 -8 -62 -26 -97 -41 -35 -15 -66 -25 -68 -22 -3 3 5 10 18 15 103
42 164 71 163 80 -1 6 -2 17 -2 25 -2 11 -12 14 -42 10 -47 -6 -51 6 -16 41
14 14 21 27 17 29 -4 3 -30 -25 -58 -62 -63 -83 -93 -117 -93 -108 0 9 83 120
119 159 l25 27 -39 38 c-29 27 -32 29 -11 5 31 -34 30 -58 -4 -88 -16 -15 -25
-16 -44 -7 -22 10 -23 14 -15 53 5 23 8 47 6 53 -2 6 -14 -42 -27 -107 -12
-65 -27 -120 -31 -123 -12 -7 -12 -7 11 98 12 50 19 96 16 102 -2 6 -5 1 -5
-10 -2 -36 -25 -47 -47 -22 -10 12 -13 18 -5 13 11 -6 13 -4 7 11 -24 61 -16
95 14 59 14 -17 35 -21 25 -5 -3 6 -1 10 4 10 6 0 11 -6 11 -12 0 -10 2 -10 8
0 5 7 17 10 28 7 10 -4 7 1 -8 10 -33 19 -104 27 -138 16z m-52 -183 c21 -39
21 -44 7 -54 -10 -8 -12 -14 -6 -19 6 -3 11 -1 11 4 0 6 5 11 11 11 6 0 9 -6
6 -14 -8 -21 34 -47 57 -34 40 23 90 -32 71 -79 -5 -15 -9 -12 -22 14 -12 25
-19 31 -31 24 -11 -6 -21 -4 -32 7 -28 30 -57 41 -87 33 -36 -9 -63 -3 -63 15
0 17 41 19 58 2 6 -6 14 -9 17 -7 4 5 -38 39 -97 79 -4 3 0 22 9 42 15 33 19
35 42 27 15 -6 36 -27 49 -51z m22 -130 c0 -5 6 -8 13 -8 8 0 14 -12 15 -28 0
-22 -6 -31 -26 -40 -18 -8 -20 -10 -5 -6 30 7 95 -34 106 -67 2 -8 3 -1 1 15
-6 40 8 24 23 -27 12 -39 12 -39 8 -7 -4 33 -4 34 11 15 8 -11 34 -51 57 -89
l41 -69 -23 -18 c-31 -25 -51 -24 -52 4 -1 17 -3 16 -8 -8 -6 -25 -10 -14 -26
65 -10 52 -20 89 -22 83 -3 -7 3 -47 11 -89 9 -42 16 -78 16 -80 0 -10 -58 -3
-82 10 -20 11 -28 11 -32 3 -3 -7 -4 8 -1 33 4 42 4 43 -6 12 -11 -37 -25 -34
-68 12 -21 22 -22 28 -10 43 12 15 10 15 -9 -1 -29 -25 -28 -13 4 32 24 34 24
35 2 9 -21 -24 -26 -26 -37 -13 -6 8 -15 30 -18 50 -3 20 -11 36 -17 36 -6 0
-2 7 8 15 16 12 17 15 4 15 -12 0 -17 13 -20 55 l-3 54 72 -2 c40 -1 73 -5 73
-9z"/>
</g>
</svg>
